IKResults
version=1
nRows=29
nColumns=24
inDegrees=yes

Units are S.I. units (second, meters, Newtons, ...)
If the header above contains a line with 'inDegrees', this indicates whether rotational values are in degrees (yes) or radians (no).

endheader
time	pelvis_tilt	pelvis_list	pelvis_rotation	pelvis_tx	pelvis_ty	pelvis_tz	hip_flexion_r	hip_adduction_r	hip_rotation_r	knee_angle_r	ankle_angle_r	subtalar_angle_r	mtp_angle_r	hip_flexion_l	hip_adduction_l	hip_rotation_l	knee_angle_l	ankle_angle_l	subtalar_angle_l	mtp_angle_l	lumbar_extension	lumbar_bending	lumbar_rotation
      2.12000000	     11.48067236	      1.53768503	   -179.46029012	      0.29986527	      0.71662905	     -1.20882068	     51.79019446	    -23.64071395	    -21.24382995	    -69.04331159	     21.95159710	      4.95933515	      0.00000000	     53.23800966	    -27.99419302	    -19.91321295	    -69.09163430	     22.20225502	     16.09018328	      0.00000000	     -9.98125767	      2.08680376	      2.66406407
      2.12500000	     11.43643906	      1.50458175	   -179.44983035	      0.29885348	      0.72067542	     -1.20886564	     51.09569869	    -23.44469967	    -21.43195373	    -68.01489668	     21.53999746	      4.97617594	      0.00000000	     52.50866513	    -27.74792306	    -20.18378487	    -68.08909235	     21.79045223	     16.03320583	      0.00000000	     -9.85031978	      2.03770075	      2.58965182
      2.13000000	     11.40985526	      1.48043816	   -179.45026818	      0.29782378	      0.72468255	     -1.20886811	     50.42571005	    -23.23120742	    -21.60470836	    -66.98242396	     21.14918828	      4.97802279	      0.00000000	     51.79307324	    -27.52918946	    -20.49170663	    -67.08399354	     21.35620014	     15.99248200	      0.00000000	     -9.68232966	      2.01972471	      2.54407382
      2.13500000	     11.40568902	      1.47180311	   -179.46737963	      0.29676767	      0.72866497	     -1.20884559	     49.78588610	    -23.00608429	    -21.79342728	    -65.96167477	     20.72986346	      4.98691541	      0.00000000	     51.10183873	    -27.32526030	    -20.76662027	    -66.08013576	     20.93933303	     16.00558873	      0.00000000	     -9.49648832	      1.99352633	      2.55965279
      2.14000000	     11.35115799	      1.45468639	   -179.48207573	      0.29574775	      0.73258719	     -1.20887399	     49.10767116	    -22.79108247	    -21.99803892	    -64.96261566	     20.33374823	      4.90560178	      0.00000000	     50.37558542	    -27.09863484	    -21.03344337	    -65.07396080	     20.49826811	     15.89309683	      0.00000000	     -9.36355471	      1.99966850	      2.48458564
      2.14500000	     11.33346013	      1.42431444	   -179.49101343	      0.29463059	      0.73651710	     -1.20883581	     48.44446291	    -22.59672370	    -22.19294297	    -63.92593134	     19.92231238	      4.92796561	      0.00000000	     49.65997821	    -26.86675239	    -21.33872248	    -64.05675231	     20.07039141	     15.83931950	      0.00000000	     -9.18625151	      1.93063253	      2.51435558
      2.15000000	     11.29280704	      1.40736179	   -179.46858321	      0.29363938	      0.74035205	     -1.20899317	     47.75366728	    -22.37726761	    -22.38605944	    -62.88379292	     19.50459330	      4.94471978	      0.00000000	     48.96601365	    -26.63613588	    -21.58809463	    -63.04286710	     19.65140089	     15.84297053	      0.00000000	     -9.04959461	      1.91655448	      2.36846119
      2.15500000	     11.26328267	      1.37286404	   -179.45476503	      0.29256370	      0.74414616	     -1.20904138	     47.08041126	    -22.18631777	    -22.58284042	    -61.84411667	     19.08787199	      4.96860123	      0.00000000	     48.25741826	    -26.37546504	    -21.85889167	    -62.01244636	     19.25101753	     15.78797755	      0.00000000	     -8.89354884	      1.86952968	      2.28964439
      2.16000000	     11.23370120	      1.36348853	   -179.44813753	      0.29137836	      0.74797662	     -1.20900253	     46.38707677	    -21.97349121	    -22.78977175	    -60.78049995	     18.69051145	      5.01153625	      0.00000000	     47.55643997	    -26.13148410	    -22.10000501	    -60.98639666	     18.83153328	     15.74425346	      0.00000000	     -8.72605691	      1.81632603	      2.32945967
      2.16500000	     11.25303877	      1.36767673	   -179.49285576	      0.29019446	      0.75168407	     -1.20893249	     45.76890940	    -21.73652889	    -23.01268541	    -59.73651722	     18.25396188	      5.02232890	      0.00000000	     46.89781045	    -25.93799381	    -22.38037908	    -59.97595844	     18.37459284	     15.68562615	      0.00000000	     -8.50305197	      1.83802883	      2.30907283
      2.17000000	     11.18109434	      1.33841467	   -179.48530072	      0.28920266	      0.75532518	     -1.20902199	     45.08735025	    -21.54354398	    -23.22582188	    -58.73760616	     17.83768441	      4.97561743	      0.00000000	     46.17968963	    -25.67397048	    -22.59361326	    -58.95937009	     17.92644363	     15.58850212	      0.00000000	     -8.41805649	      1.80136075	      2.23082955
      2.17500000	     11.17873029	      1.32926715	   -179.51244761	      0.28803899	      0.75893502	     -1.20897604	     44.44682617	    -21.32796412	    -23.45061190	    -57.69118717	     17.38056805	      4.99950172	      0.00000000	     45.50718423	    -25.44515935	    -22.84759846	    -57.94102547	     17.49795441	     15.53200638	      0.00000000	     -8.23997579	      1.76880613	      2.25527489
      2.18000000	     11.13874389	      1.27610705	   -179.49613273	      0.28698633	      0.76246252	     -1.20894662	     43.78117067	    -21.16732707	    -23.64304354	    -56.65879756	     16.95526838	      5.03627269	      0.00000000	     44.81746789	    -25.14742617	    -23.07483317	    -56.92276581	     17.06123759	     15.47335738	      0.00000000	     -8.11297683	      1.74516092	      2.10358029
      2.18500000	     11.14553358	      1.26883530	   -179.49922337	      0.28582258	      0.76594846	     -1.20895303	     43.14309644	    -20.95880309	    -23.88932164	    -55.60646789	     16.50655159	      5.09086585	      0.00000000	     44.17422916	    -24.89928638	    -23.28919009	    -55.88930968	     16.62135303	     15.38388158	      0.00000000	     -7.91738605	      1.69930181	      2.10786317
      2.19000000	     11.15261892	      1.27803759	   -179.52738482	      0.28464053	      0.76938605	     -1.20886123	     42.51432065	    -20.73088011	    -24.12977532	    -54.55618035	     16.06965737	      5.12364974	      0.00000000	     43.53020693	    -24.66677301	    -23.49664796	    -54.85986641	     16.18927535	     15.27346489	      0.00000000	     -7.72841726	      1.71539634	      2.10446310
      2.19500000	     11.07988695	      1.25029515	   -179.50404914	      0.28356817	      0.77278302	     -1.20885953	     41.82251461	    -20.56293599	    -24.37796961	    -53.54820828	     15.65182953	      5.15687669	      0.00000000	     42.83844232	    -24.37504090	    -23.66041996	    -53.84242257	     15.73717897	     15.13071471	      0.00000000	     -7.65175541	      1.64193166	      2.08064858
      2.20000000	     11.04526271	      1.21364983	   -179.48978185	      0.28243544	      0.77606641	     -1.20889274	     41.16244997	    -20.39517062	    -24.68348181	    -52.52352294	     15.22911068	      5.08158039	      0.00000000	     42.17393365	    -24.09716579	    -23.87218709	    -52.82953902	     15.29897146	     15.02853296	      0.00000000	     -7.50902275	      1.63457426	      1.91151505
      2.20500000	     11.03629855	      1.18072258	   -179.47734762	      0.28132049	      0.77930577	     -1.20882563	     40.53512225	    -20.22573305	    -24.92157690	    -51.49551224	     14.76541164	      5.10753886	      0.00000000	     41.54114004	    -23.79757070	    -24.04750160	    -51.81241472	     14.87123213	     14.90260078	      0.00000000	     -7.34072506	      1.60495079	      1.85483689
      2.21000000	     11.05420248	      1.18880945	   -179.47956765	      0.28020730	      0.78243276	     -1.20883099	     39.93448974	    -19.99939533	    -25.08042752	    -50.45907660	     14.33109012	      5.28904263	      0.00000000	     40.95811836	    -23.55816724	    -24.19475399	    -50.82769305	     14.44554806	     14.80923861	      0.00000000	     -7.15138070	      1.61289795	      1.82065145
      2.21500000	     11.05255663	      1.15148370	   -179.48259836	      0.27909760	      0.78553063	     -1.20874992	     39.33303796	    -19.82687809	    -25.29596354	    -49.43927412	     13.88354484	      5.35361540	      0.00000000	     40.31181196	    -23.23288640	    -24.37365387	    -49.71897594	     13.95673230	     14.58711251	      0.00000000	     -6.98162618	      1.58027811	      1.77871546
      2.22000000	     11.05165070	      1.13527991	   -179.48350646	      0.27794036	      0.78853947	     -1.20869063	     38.73793458	    -19.63733034	    -25.52398499	    -48.44780684	     13.45982189	      5.39556298	      0.00000000	     39.70078398	    -22.94649912	    -24.50676550	    -48.70372572	     13.53013217	     14.44367261	      0.00000000	     -6.81379107	      1.54090494	      1.78305062
      2.22500000	     11.08525388	      1.13689930	   -179.51360134	      0.27682723	      0.79143910	     -1.20854195	     38.18222809	    -19.41509817	    -25.74021875	    -47.43131674	     13.02028394	      5.42739745	      0.00000000	     39.14188200	    -22.70233092	    -24.66103651	    -47.72639996	     13.10422484	     14.30970312	      0.00000000	     -6.59927639	      1.58237159	      1.74370314
      2.23000000	     11.05385834	      1.10719896	   -179.49004645	      0.27570524	      0.79433955	     -1.20857527	     37.54562964	    -19.22892229	    -25.95231934	    -46.41763983	     12.60889804	      5.47945845	      0.00000000	     38.52008922	    -22.39292967	    -24.75410498	    -46.71509428	     12.67000416	     14.14094608	      0.00000000	     -6.46941719	      1.49450543	      1.76307507
      2.23500000	     11.07536979	      1.13953233	   -179.50134284	      0.27460611	      0.79712880	     -1.20857009	     36.94785907	    -18.96506537	    -26.18842676	    -45.36261248	     12.14853645	      5.51537312	      0.00000000	     37.97432018	    -22.16761435	    -24.85522591	    -45.74200028	     12.26501111	     14.01022769	      0.00000000	     -6.27105781	      1.56015486	      1.66907394
      2.24000000	     11.06654820	      1.10775320	   -179.45197836	      0.27358259	      0.79985607	     -1.20860863	     36.34840590	    -18.77663262	    -26.36487352	    -44.35334612	     11.73151316	      5.51921649	      0.00000000	     37.41983431	    -21.84633430	    -24.91295672	    -44.78696165	     11.80267197	     13.79930786	      0.00000000	     -6.12136934	      1.51191210	      1.57519981
      2.24500000	     11.12910533	      1.14599600	   -179.46998956	      0.27245347	      0.80247355	     -1.20851037	     35.82081393	    -18.51120643	    -26.57741336	    -43.33149445	     11.27603284	      5.53308109	      0.00000000	     36.92561354	    -21.61833428	    -24.97835787	    -43.80533499	     11.40536011	     13.66604631	      0.00000000	     -5.88087745	      1.55506463	      1.58655477
      2.25000000	     11.13525440	      1.16723288	   -179.49629628	      0.27131967	      0.80508442	     -1.20844420	     35.25108693	    -18.25250356	    -26.74168143	    -42.32789711	     10.85149360	      5.56630700	      0.00000000	     36.37257275	    -21.38798607	    -25.06787174	    -42.85540428	     10.96542738	     13.47696703	      0.00000000	     -5.70201843	      1.54828314	      1.69028756
      2.25500000	     11.11073252	      1.14732664	   -179.47793280	      0.27027937	      0.80754925	     -1.20840988	     34.68138643	    -18.06699551	    -26.93262471	    -41.39480017	     10.43936486	      5.56349609	      0.00000000	     35.81738633	    -21.09902205	    -25.11393817	    -41.92556384	     10.54085012	     13.27439801	      0.00000000	     -5.57892348	      1.49798696	      1.66908139
      2.26000000	     11.17416265	      1.18289646	   -179.51153936	      0.26915591	      0.80992617	     -1.20834022	     34.17321834	    -17.77863786	    -27.07551394	    -40.37821015	      9.99796727	      5.56675762	      0.00000000	     35.34498305	    -20.88096136	    -25.16405323	    -40.99917420	     10.13098083	     13.08038455	      0.00000000	     -5.32056836	      1.61885977	      1.53045758
